<svg id="visual" viewBox="0 0 1400 600" width="1400" height="600" xmlns="http://www.w3.org/2000/svg" xmlns:xlink="http://www.w3.org/1999/xlink" version="1.1"><rect x="0" y="0" width="1400" height="600" fill="#EDEFF1"></rect><path d="M0 288L38.8 284.5C77.7 281 155.3 274 233.2 245.5C311 217 389 167 466.8 150.2C544.7 133.3 622.3 149.7 700 177.2C777.7 204.7 855.3 243.3 933.2 246.2C1011 249 1089 216 1166.8 192.3C1244.7 168.7 1322.3 154.3 1361.2 147.2L1400 140L1400 0L1361.2 0C1322.3 0 1244.7 0 1166.8 0C1089 0 1011 0 933.2 0C855.3 0 777.7 0 700 0C622.3 0 544.7 0 466.8 0C389 0 311 0 233.2 0C155.3 0 77.7 0 38.8 0L0 0Z" fill="#fcfcfc" stroke-linecap="round" stroke-linejoin="miter"></path></svg>