<svg id="visual" viewBox="0 0 4800 600" width="4800" height="600" xmlns="http://www.w3.org/2000/svg" xmlns:xlink="http://www.w3.org/1999/xlink" version="1.1">
    <rect x="0" y="0" width="4800" height="600" fill="#fff3e0"></rect>
    <path d="M0 238L114.3 275.2C228.7 312.3 457.3 386.7 685.8 422.7C914.3 458.7 1142.7 456.3 1371.2 452.3C1599.7 448.3 1828.3 442.7 2057 398.8C2285.7 355 2514.3 273 2743 279.7C2971.7 286.3 3200.3 381.7 3428.8 420.2C3657.3 458.7 3885.7 440.3 4114.2 401.8C4342.7 363.3 4571.3 304.7 4685.7 275.3L4800 246L4800 601L4685.7 601C4571.3 601 4342.7 601 4114.2 601C3885.7 601 3657.3 601 3428.8 601C3200.3 601 2971.7 601 2743 601C2514.3 601 2285.7 601 2057 601C1828.3 601 1599.7 601 1371.2 601C1142.7 601 914.3 601 685.8 601C457.3 601 228.7 601 114.3 601L0 601Z" fill="#ffe0b2" stroke-linecap="round" stroke-linejoin="miter"></path>
</svg>
